<svg width="97" height="95" viewBox="0 0 97 95" fill="none" xmlns="http://www.w3.org/2000/svg">
<g clip-path="url(#clip0_1101_2803)">
<path d="M97 47.5087C97 51.0849 93.0136 54.1671 92.2504 57.5081C91.4696 60.9667 93.7064 65.4723 92.2034 68.5897C90.7005 71.7072 85.7454 72.8071 83.579 75.5305C81.4126 78.2538 81.4713 83.3065 78.7413 85.4946C76.0113 87.6827 71.1091 86.4827 67.9681 88.012C64.8272 89.5414 62.743 94.0999 59.2908 94.8881C55.9503 95.6469 52.0696 92.453 48.5 92.453C44.9305 92.453 41.0498 95.6469 37.7033 94.8881C34.2571 94.0999 32.1435 89.5178 29.026 88.012C25.9086 86.5063 20.977 87.6709 18.2587 85.4946C15.5404 83.3182 15.5992 78.2656 13.4152 75.5305C11.2312 72.7954 6.31716 71.7601 4.79071 68.5897C3.26426 65.4193 5.53046 60.9431 4.74962 57.5081C3.98639 54.1612 -0.00585938 51.079 -0.00585938 47.5087C-0.00585938 43.9383 3.98052 40.8503 4.74375 37.5093C5.52458 34.0507 3.28188 29.5451 4.78485 26.4276C6.28781 23.3102 11.2429 22.2102 13.4093 19.4869C15.5757 16.7635 15.5228 11.705 18.2528 9.5228C20.9828 7.34058 25.8851 8.53463 29.0202 7.00531C32.1553 5.47599 34.2512 0.917448 37.6974 0.129261C41.0439 -0.629515 44.9246 2.5644 48.4941 2.5644C52.0637 2.5644 55.9444 -0.629515 59.285 0.129261C62.7371 0.917448 64.8506 5.49952 67.9622 7.00531C71.0739 8.5111 76.0172 7.34646 78.7355 9.5228C81.4537 11.6991 81.395 16.7517 83.5731 19.4869C85.7513 22.222 90.6711 23.2572 92.1976 26.4276C93.724 29.598 91.4637 34.0742 92.2445 37.5093C93.0136 40.8444 97 43.9265 97 47.5087Z" fill="#33854E"/>
<path d="M88.4894 55.6045C92.9629 33.4765 78.6847 11.905 56.5982 7.4231C34.5118 2.94122 12.9807 17.2462 8.50717 39.3742C4.0337 61.5022 18.3119 83.0737 40.3983 87.5556C62.4848 92.0375 84.0159 77.7325 88.4894 55.6045Z" fill="#F9FBFC"/>
<path d="M22.9395 42.226V46.8564H30.4029V50.8923H22.9395V55.8043H31.3398V60.0905H17.5996V37.9711H31.3398V42.226H22.9395Z" fill="#33854E"/>
<path d="M44.4588 37.7521C47.2693 37.7521 49.5905 38.4925 51.4226 39.9734C53.2754 41.4543 54.4725 43.4566 55.0137 45.9804H49.3615C48.9452 44.9584 48.2998 44.1554 47.4254 43.5714C46.5719 42.9873 45.5518 42.6953 44.3651 42.6953C42.8037 42.6953 41.5442 43.2689 40.5866 44.4161C39.6289 45.5632 39.1501 47.0963 39.1501 49.0152C39.1501 50.9341 39.6289 52.4671 40.5866 53.6143C41.5442 54.7406 42.8037 55.3037 44.3651 55.3037C45.5518 55.3037 46.5719 55.0117 47.4254 54.4277C48.2998 53.8437 48.9452 53.0511 49.3615 52.0499H55.0137C54.4725 54.5528 53.2754 56.5552 51.4226 58.0569C49.5905 59.5378 47.2693 60.2782 44.4588 60.2782C42.3145 60.2782 40.4304 59.8089 38.8066 58.8704C37.1828 57.9109 35.9232 56.576 35.028 54.8657C34.1537 53.1554 33.7165 51.2052 33.7165 49.0152C33.7165 46.8251 34.1537 44.8749 35.028 43.1646C35.9232 41.4543 37.1828 40.1299 38.8066 39.1913C40.4304 38.2318 42.3145 37.7521 44.4588 37.7521Z" fill="#33854E"/>
<path d="M68.499 37.627C70.5808 37.627 72.4649 38.1171 74.1512 39.0974C75.8583 40.0569 77.2011 41.4022 78.1795 43.1333C79.158 44.8437 79.6472 46.7834 79.6472 48.9526C79.6472 51.1218 79.1476 53.072 78.1483 54.8031C77.1698 56.5343 75.827 57.89 74.1199 58.8704C72.4336 59.8298 70.56 60.3095 68.499 60.3095C66.4379 60.3095 64.5539 59.8298 62.8468 58.8704C61.1605 57.89 59.8177 56.5343 58.8184 54.8031C57.8399 53.072 57.3507 51.1218 57.3507 48.9526C57.3507 46.7834 57.8399 44.8437 58.8184 43.1333C59.8177 41.4022 61.1605 40.0569 62.8468 39.0974C64.5539 38.1171 66.4379 37.627 68.499 37.627ZM68.499 42.6015C66.7502 42.6015 65.3554 43.1751 64.3144 44.3222C63.2943 45.4485 62.7843 46.992 62.7843 48.9526C62.7843 50.8923 63.2943 52.4358 64.3144 53.583C65.3554 54.7301 66.7502 55.3037 68.499 55.3037C70.2269 55.3037 71.6113 54.7301 72.6522 53.583C73.6931 52.4358 74.2136 50.8923 74.2136 48.9526C74.2136 47.0128 73.6931 45.4694 72.6522 44.3222C71.6321 43.1751 70.2477 42.6015 68.499 42.6015Z" fill="#33854E"/>
<path d="M11.0195 76.7423L13.5793 68.6252L11.0195 60.5081H85.9799L83.4261 68.6252L85.9799 76.7423H11.0195Z" fill="#009387"/>
<path d="M84.3774 61.6843L82.1876 68.6251L84.3716 75.5658H12.6226L14.8066 68.6251L12.6226 61.6843H84.3774ZM87.5771 59.3315H9.41704L10.3799 62.3902L12.3232 68.6251L10.3564 74.86L9.39355 77.9186H87.5771L86.6143 74.86L84.6534 68.6251L86.6143 62.3902L87.5771 59.3315Z" fill="#F9FBFC"/>
<path d="M53.05 23.3928L48.5 24.6986C48.4997 23.3104 48.9504 21.9598 49.784 20.8509C50.6175 19.742 51.7887 18.935 53.1205 18.5519L57.6704 17.2461C57.6717 18.6345 57.2214 19.9856 56.3877 21.0947C55.554 22.2038 54.3823 23.0105 53.05 23.3928Z" fill="#009387"/>
<path d="M43.8733 18.5282L39.3292 17.2224C39.3228 18.6149 39.7708 19.9713 40.6049 21.0851C41.4389 22.199 42.6135 23.0092 43.9496 23.3926L48.4996 24.6984C48.5046 23.3054 48.0555 21.9489 47.2204 20.8352C46.3853 19.7214 45.21 18.9114 43.8733 18.5282Z" fill="#009387"/>
<path d="M53.05 28.9628L48.5 30.2687C48.4997 28.8805 48.9504 27.5299 49.784 26.421C50.6175 25.3121 51.7887 24.5051 53.1205 24.122L57.6704 22.8162C57.6717 24.2046 57.2214 25.5556 56.3877 26.6647C55.554 27.7738 54.3823 28.5806 53.05 28.9628Z" fill="#009387"/>
<path d="M43.8732 24.122L39.3291 22.8044C39.3279 24.1929 39.7782 25.5439 40.6119 26.653C41.4456 27.7621 42.6173 28.5689 43.9495 28.9511L48.4995 30.2569C48.4969 28.87 48.0442 27.5215 47.2097 26.4149C46.3752 25.3083 45.2042 24.5035 43.8732 24.122Z" fill="#009387"/>
<path d="M48.5004 20.9694C47.8273 20.2963 47.2932 19.4968 46.9289 18.6167C46.5645 17.7366 46.377 16.7931 46.377 15.8403C46.377 14.8875 46.5645 13.944 46.9289 13.0639C47.2932 12.1838 47.8273 11.3843 48.5004 10.7112C49.1736 11.3843 49.7076 12.1838 50.072 13.0639C50.4363 13.944 50.6239 14.8875 50.6239 15.8403C50.6239 16.7931 50.4363 17.7366 50.072 18.6167C49.7076 19.4968 49.1736 20.2963 48.5004 20.9694Z" fill="#009387"/>
<path d="M25.5325 65.4563V67.0514H22.1376V68.8693H24.7599V70.3941H22.1376V73.7485H20.1357V65.4563H25.5325Z" fill="#F9FBFC"/>
<path d="M30.8102 73.7485L29.0191 70.6169H28.5626V73.7485H26.5607V65.4563H29.9791C30.6346 65.4563 31.1888 65.5697 31.6414 65.7964C32.0941 66.0232 32.4336 66.336 32.6599 66.7347C32.8862 67.1257 32.9994 67.5753 32.9994 68.0835C32.9994 68.6856 32.8316 69.1977 32.496 69.62C32.1682 70.0422 31.6882 70.3315 31.0561 70.4879L33.0228 73.7485H30.8102ZM28.5626 69.2447H29.8035C30.2015 69.2447 30.4942 69.1587 30.6815 68.9866C30.8688 68.8068 30.9624 68.5449 30.9624 68.2008C30.9624 67.8724 30.8649 67.6144 30.6698 67.4267C30.4824 67.2391 30.1937 67.1452 29.8035 67.1452H28.5626V69.2447Z" fill="#F9FBFC"/>
<path d="M36.005 65.4563V73.7485H34.0031V65.4563H36.005Z" fill="#F9FBFC"/>
<path d="M39.389 67.0514V68.7872H42.1869V70.3002H39.389V72.1416H42.5381V73.7485H37.3871V65.4563H42.5381V67.0514H39.389Z" fill="#F9FBFC"/>
<path d="M51.0267 73.7485H49.0248L45.6767 68.6582V73.7485H43.6749V65.4563H45.6767L49.0248 70.5935V65.4563H51.0267V73.7485Z" fill="#F9FBFC"/>
<path d="M59.8546 69.5848C59.8546 70.398 59.679 71.1213 59.3278 71.7546C58.9844 72.3801 58.485 72.8688 57.8294 73.2207C57.1816 73.5725 56.4168 73.7485 55.5349 73.7485H52.4092V65.4563H55.5349C56.4246 65.4563 57.1933 65.6283 57.8411 65.9724C58.4889 66.3164 58.9844 66.8012 59.3278 67.4267C59.679 68.0522 59.8546 68.7716 59.8546 69.5848ZM55.3593 71.954C56.1397 71.954 56.7446 71.7468 57.1738 71.3324C57.6109 70.918 57.8294 70.3354 57.8294 69.5848C57.8294 68.8342 57.6109 68.2516 57.1738 67.8372C56.7446 67.4228 56.1397 67.2156 55.3593 67.2156H54.411V71.954H55.3593Z" fill="#F9FBFC"/>
<path d="M62.9967 72.212H65.6658V73.7485H60.9949V65.4563H62.9967V72.212Z" fill="#F9FBFC"/>
<path d="M73.738 65.4563L70.8699 70.9922V73.7485H68.8564V70.9922L65.9882 65.4563H68.2827L69.8748 68.8342L71.4669 65.4563H73.738Z" fill="#F9FBFC"/>
</g>
<defs>
<clipPath id="clip0_1101_2803">
<rect width="97" height="95" fill="white"/>
</clipPath>
</defs>
</svg>
