<?xml version="1.0" encoding="UTF-8"?><svg id="Layer_1" xmlns="http://www.w3.org/2000/svg" xmlns:xlink="http://www.w3.org/1999/xlink" viewBox="0 0 720 95.44"><defs><style>.cls-1{mask:url(#mask);}.cls-2{fill:#fff;}.cls-3{fill:#6ab1f3;}.cls-4{fill:#2e2f34;}</style><mask id="mask" x="0" y="0" width="176.08" height="93.85" maskUnits="userSpaceOnUse"><g id="mask0_917_30"><path class="cls-2" d="m176.08,0H0v93.85h176.08V0Z"/></g></mask></defs><g class="cls-1"><path class="cls-3" d="m0,0l9.25,11.96h40.83c10.2,0,19.99,4.05,27.2,11.27l42,42,44.83-44.83v61.49H63.36l9.25,11.96h97.48c3.3,0,5.98-2.68,5.98-5.98V5.98c0-3.3-2.68-5.98-5.98-5.98H0Zm119.29,48.31L82.93,11.96h72.73l-36.37,36.35Z"/><path class="cls-3" d="m73.91,46.84c0,3.3-2.68,5.98-5.98,5.98h-26.88l-9.25-11.96h36.13c3.3,0,5.98,2.68,5.98,5.98Z"/></g><path class="cls-4" d="m203.33.14h41.49c6.51,0,12.22,1.25,17.13,3.75,4.91,2.41,8.66,5.76,11.24,10.04,2.68,4.28,4.02,9.06,4.02,14.32s-1.34,10.17-4.02,14.46c-2.68,4.28-6.51,7.67-11.51,10.17-4.91,2.41-10.53,3.61-16.86,3.61h-26.77v37.34h-14.72V.14Zm40.02,44.04c4.02,0,7.45-.71,10.31-2.14,2.95-1.43,5.13-3.35,6.56-5.76,1.52-2.41,2.28-5.13,2.28-8.16s-.76-5.58-2.28-7.9c-1.43-2.41-3.61-4.28-6.56-5.62-2.86-1.34-6.29-2.01-10.31-2.01h-25.3v31.59h25.3Zm68.08,51.26c-6.51,0-12.4-1.61-17.67-4.82-5.27-3.3-9.37-7.67-12.31-13.12-2.95-5.53-4.42-11.6-4.42-18.2s1.47-12.63,4.42-18.07c2.95-5.53,7.05-9.9,12.31-13.12,5.26-3.3,11.15-4.95,17.67-4.95s12.4,1.65,17.67,4.95c5.27,3.21,9.37,7.58,12.31,13.12,2.94,5.44,4.42,11.47,4.42,18.07s-1.47,12.67-4.42,18.2c-2.95,5.44-7.05,9.82-12.31,13.12-5.27,3.21-11.15,4.82-17.67,4.82Zm0-12.18c4.02,0,7.54-1.12,10.57-3.35,3.12-2.23,5.49-5.18,7.09-8.83,1.61-3.75,2.41-7.67,2.41-11.78s-.8-7.99-2.41-11.64c-1.61-3.75-3.97-6.74-7.09-8.97-3.03-2.32-6.56-3.48-10.57-3.48s-7.59,1.16-10.71,3.48c-3.03,2.23-5.35,5.22-6.96,8.97-1.61,3.66-2.41,7.54-2.41,11.64s.8,8.03,2.41,11.78c1.61,3.66,3.93,6.6,6.96,8.83,3.12,2.23,6.69,3.35,10.71,3.35Zm70.11,12.18c-8.57,0-15.57-2.1-21.01-6.29-5.35-4.19-8.66-9.99-9.91-17.4h13.38c.8,4.1,2.68,7.36,5.62,9.77,2.94,2.32,6.92,3.48,11.91,3.48,4.64,0,8.3-1.03,10.98-3.08,2.68-2.05,4.02-4.73,4.02-8.03,0-2.5-.89-4.51-2.68-6.02-1.78-1.61-4.64-2.72-8.57-3.35l-14.19-2.41c-6.34-1.07-11.11-3.08-14.32-6.02-3.12-2.94-4.68-6.96-4.68-12.05,0-4.1,1.12-7.72,3.35-10.84,2.32-3.21,5.53-5.67,9.64-7.36,4.19-1.78,8.97-2.68,14.32-2.68,8.21,0,14.77,1.96,19.68,5.89,5,3.84,7.81,9.1,8.43,15.79h-13.38c-.54-3.39-2.05-6.11-4.55-8.16-2.5-2.05-5.89-3.08-10.17-3.08s-7.85.8-10.44,2.41c-2.5,1.61-3.75,3.88-3.75,6.83,0,2.23.71,3.88,2.14,4.95,1.43,1.07,3.97,1.92,7.63,2.54l14.46,2.41c6.87,1.16,11.96,3.35,15.26,6.56,3.39,3.21,5.09,7.67,5.09,13.39,0,4.55-1.25,8.57-3.75,12.05-2.5,3.39-5.89,6.02-10.17,7.9-4.28,1.87-9.06,2.81-14.32,2.81Zm62.35-.8c-7.05,0-12.36-1.92-15.93-5.76-3.48-3.93-5.22-9.64-5.22-17.13v-35.2h-12.18v-11.78h12.18V6.43h14.32v18.34h18.47v11.78h-18.47v35.2c0,3.48.85,6.16,2.54,8.03,1.78,1.78,4.37,2.68,7.76,2.68,2.85,0,5.62-.4,8.3-1.2v11.78c-1.25.54-2.95.94-5.09,1.2-2.05.27-4.28.4-6.69.4ZM469.87.14h41.49c6.51,0,12.22,1.25,17.13,3.75,4.91,2.41,8.66,5.76,11.24,10.04,2.68,4.28,4.02,9.06,4.02,14.32s-1.34,10.17-4.02,14.46c-2.68,4.28-6.51,7.67-11.51,10.17-4.91,2.41-10.53,3.61-16.86,3.61h-26.77v37.34h-14.72V.14Zm40.02,44.04c4.02,0,7.45-.71,10.31-2.14,2.95-1.43,5.13-3.35,6.56-5.76,1.52-2.41,2.28-5.13,2.28-8.16s-.76-5.58-2.28-7.9c-1.43-2.41-3.61-4.28-6.56-5.62-2.86-1.34-6.29-2.01-10.31-2.01h-25.3v31.59h25.3Zm44.29-17.28h14.32v66.93h-14.32V26.9Zm-.27-26.9h14.86v15.79h-14.86V0Zm27.62,0h14.32v93.84h-14.32V0Zm57.75,95.44c-6.51,0-12.4-1.61-17.67-4.82-5.27-3.3-9.37-7.67-12.31-13.12-2.95-5.53-4.42-11.6-4.42-18.2s1.47-12.63,4.42-18.07c2.94-5.53,7.05-9.9,12.31-13.12,5.27-3.3,11.15-4.95,17.67-4.95s12.4,1.65,17.67,4.95c5.27,3.21,9.37,7.58,12.31,13.12,2.95,5.44,4.42,11.47,4.42,18.07s-1.47,12.67-4.42,18.2c-2.95,5.44-7.05,9.82-12.31,13.12-5.26,3.21-11.15,4.82-17.67,4.82Zm0-12.18c4.02,0,7.54-1.12,10.58-3.35,3.12-2.23,5.49-5.18,7.09-8.83,1.61-3.75,2.41-7.67,2.41-11.78s-.8-7.99-2.41-11.64c-1.61-3.75-3.97-6.74-7.09-8.97-3.03-2.32-6.56-3.48-10.58-3.48s-7.58,1.16-10.71,3.48c-3.03,2.23-5.35,5.22-6.96,8.97-1.61,3.66-2.41,7.54-2.41,11.64s.8,8.03,2.41,11.78c1.61,3.66,3.93,6.6,6.96,8.83,3.12,2.23,6.69,3.35,10.71,3.35Zm68.93,11.38c-7.05,0-12.36-1.92-15.93-5.76-3.48-3.93-5.22-9.64-5.22-17.13v-35.2h-12.18v-11.78h12.18V6.43h14.32v18.34h18.47v11.78h-18.47v35.2c0,3.48.85,6.16,2.54,8.03,1.78,1.78,4.37,2.68,7.76,2.68,2.85,0,5.62-.4,8.3-1.2v11.78c-1.25.54-2.95.94-5.09,1.2-2.05.27-4.28.4-6.69.4Z"/></svg>